# xmcd
#
# Track frame offsets: 
#        150
#        16590
#        35861
#        53188
#        83791
#        114028
#        131926
#        153738
#        181093
#        206029
#        229371
#        254694
#        274079
#
# Disc length: 3835 seconds
#
# Revision: 2
# Processed by: cddbd v1.5.2PL0 Copyright (c) Steve Scherf et al.
# Submitted via: ExactAudioCopyFreeDBPlugin 1.0
#
DISCID=b60ef90d
DTITLE=Kurt Ostbahn and Die Kombo - Höchste Zeit - Ein Abend im Gasthaus
DTITLE=Quell
DYEAR=2005
DGENRE=AustroPop
TTITLE0=I brauch kan Dokta (Live 2005)
TTITLE1=(Heit loss i) Anschreibm (Live 2005)
TTITLE2=Fia de Hoa (Live 2005)
TTITLE3=6x fia nix (Live 2005)
TTITLE4=So im Eck (Live 2005)
TTITLE5=Gold and Silber (Live 2005)
TTITLE6=Gschichtln (Live 2005)
TTITLE7=(No a) Defekt (Live 2005)
TTITLE8=Nix wie unguad (Live 2005)
TTITLE9=(Aller-)Höchste Zeit (Live 2005)
TTITLE10=Na, so wirst ned oid (Live 2005)
TTITLE11=A Haus mitanand (Live 2005)
TTITLE12=Wenn der Herbst langsam näherrückt (Live 2005)
EXTD=Promotion Version as of November 2005. Regular Release scheduled 
EXTD=for 2nd of December 2005
EXTT0=
EXTT1=
EXTT2=
EXTT3=
EXTT4=
EXTT5=
EXTT6=
EXTT7=
EXTT8=
EXTT9=
EXTT10=
EXTT11=
EXTT12=
PLAYORDER=
